<?xml version="1.0" encoding="utf-8"?>
<!-- Generator: Adobe Illustrator 25.0.1, SVG Export Plug-In . SVG Version: 6.00 Build 0)  -->
<svg version="1.1" id="Layer_1" xmlns="http://www.w3.org/2000/svg" xmlns:xlink="http://www.w3.org/1999/xlink" x="0px" y="0px"
	 viewBox="0 0 47 57.8" style="enable-background:new 0 0 47 57.8;" xml:space="preserve">
<style type="text/css">
	.st0{display:none;}
	.st1{display:inline;fill:#F6F6F6;stroke:#FAD607;stroke-miterlimit:10;}
	.st2{fill:none;stroke:#FAD607;stroke-width:0.7856;stroke-miterlimit:10;}
	.st3{fill:none;stroke:#FAD607;stroke-width:0.785;stroke-linecap:round;stroke-linejoin:round;stroke-miterlimit:10;}
	.st4{fill:#F6F6F6;stroke:#FAD607;stroke-miterlimit:10;}
	.st5{fill:none;stroke:#FAD607;stroke-width:1.081;stroke-linecap:round;stroke-linejoin:round;stroke-miterlimit:10;}
	
		.st6{display:inline;fill:#F6F6F6;stroke:#FAD607;stroke-width:0.129;stroke-linecap:round;stroke-linejoin:round;stroke-miterlimit:10;}
	.st7{fill:none;stroke:#FAD607;stroke-width:1.219;stroke-linecap:round;stroke-linejoin:round;stroke-miterlimit:10;}
</style>
<g id="Layer_1_1_">
	<g class="st0">
		<path class="st1" d="M24.4,41.7l1.2-4.5h-5l1.3,4.5H24.4z M21.7,43l-0.4,12.9h3.6L24.6,43H21.7z"/>
	</g>
	<path class="st2" d="M8.7,54.9h29.9v-14c-0.9-0.8-2-1.5-3.2-2.3c-2.3-1.4-4.5-2.3-6.3-2.8c-0.4,0.4-2.5,2.1-5.6,1.9
		c-2.8-0.2-4.5-1.8-5-2.2c-1-0.2-9.8,4.2-9.7,5.1C8.8,45.4,8.7,50.1,8.7,54.9z"/>
	<path class="st3" d="M18.6,36.2c0,0,2.4,18.6,2.6,18.6s4.6-0.1,4.6-0.1l4-18.7c-0.6,0.4-2.9,2.2-6.1,2.1
		C20.9,38,19.2,36.7,18.6,36.2z"/>
	<path class="st4" d="M32.4,46.2h-0.3c-0.6,0-1-0.4-1-1s0.4-1,1-1h0.3c0.6,0,1,0.4,1,1C33.5,45.7,33.1,46.2,32.4,46.2z"/>
	<path class="st2" d="M32.3,44.4c-0.3-5.2-2.9-8.3-2.9-8.3 M18.2,36.1c0,0-1.4,0.4-3.2,5.2"/>
	<path class="st2" d="M13.2,50.4c0,0-0.2,0-0.3-0.2c-0.1-0.1-0.1-0.3-0.1-0.3c0-2.3,0.1-4.6,0.1-6.9c0.1-0.2,0.3-0.6,0.7-0.9
		c0.2-0.3,0.6-0.6,0.9-0.7c0.8-0.3,1.4-0.1,1.7,0c0.9,0.3,1.2,1.1,1.3,1.3c0.3,2.1,0.7,4.1,0.9,6.2c-0.1,0.2-0.2,0.6-0.2,0.8"/>
	<circle class="st4" cx="18" cy="50.4" r="1"/>
	<circle class="st4" cx="13.9" cy="50.9" r="1"/>
	<path class="st5" d="M18.4,13.7c2.2,1.7,3.6,1.7,4.5,1.3c1.3-0.4,1.8-1.9,3.5-2.2c0.8-0.1,1.4,0,2,0.2c0.3,0.2,0.7,0.6,1,0.9
		c1.7,1.8,1.9,4.1,2,5.1c0.4,0.1,1,0.2,1.4,0.4c0.1,0.2,0.3,0.6,0.3,1.2c0,0.2,0,0.7-0.3,1.2c-0.6,0.3-1,0.6-1.5,0.9l-5.7,8.6
		c-0.4,0.2-1.2,0.7-2.2,0.8c-1.4,0.1-2.4-0.4-2.9-0.7c-2-2.9-4-5.6-5.9-8.5l-1.1-0.3c-0.1-0.1-0.6-0.8-0.7-1.5
		c0-0.9,0.3-1.5,0.6-1.7h0.9c0.6-1,0.7-1.8,0.7-2.3c0-1.1-0.4-1.7,0-2.3c0.3-0.2,0.7-0.6,1.1-0.8C17,13.7,17.9,13.7,18.4,13.7z"/>
	<g id="Layer_2_1_" class="st0">
		<path class="st6" d="M15.6,19.1c-0.3,1.3-1,1.8-1.2,2.6c-0.2,0.7-0.1,1.8,1.2,3.4v3.6c-0.1,0.1-0.6,1-1.7,1.3s-2-0.2-2.1-0.3
			c-0.2-0.1-1.2-1-1.2-2.2c0-0.3,0-1,0.6-1.3c0.2-0.2,0.6-0.2,0.7-0.4c0.1-0.2,0-0.7-0.2-1c-0.1-0.1-1-0.8-1.1-1.9s0.6-2.1,1.7-2.6
			c-0.1-0.2,0.1-0.6-0.2-0.8c-0.2-0.1-0.9-0.3-1.3-1.2c-0.4-0.9-0.2-1.7-0.1-1.9c0.3-0.9,1.2-1.9,1.9-1.7c0.1,0,0.1,0.1,0.2,0.1
			c0.6,0,0.9-1.2,1-1.5c0.6-1.7,2-3,3.2-4.1c2.4-2.3,6.4-2.1,7.2-2.1c6.4,0.3,10.2,6.9,10.5,7.4c0.2,0.4,4.3,2.8,0.4,5.3
			c0,0-0.1,0.7,0,0.8c1,0.3,1.5,1.2,1.5,2.2c0,0.9-0.6,1.8-1.4,2.2l-0.1,0.8c0.9,0.7,1.2,1.9,0.9,2.9c-0.3,0.9-1.1,1.5-2,1.7
			c-1.1,0.1-2.2-0.4-2.8-1.5v-3.5c0.2-0.2,1.3-1.1,1.4-2.6c0.2-2-1.2-3.2-1.4-3.4l0,0v-2c-0.1-0.1-0.2-0.3-0.3-0.4
			c-0.3-0.3-0.6-0.6-0.8-0.7C29.6,16,29.3,16,29,16c-0.6,0.1-0.9,0.3-1,0.3c-0.8,0.4-2.1,0.6-3.6,0.7c-2.4,0.1-5.1-0.1-6.1-0.7
			c-0.1,0-0.3-0.2-0.7-0.3c-0.3-0.1-0.8-0.2-1.3,0c-0.7,0.3-0.9,1.2-0.9,1.2C15.7,17.7,15.7,18.4,15.6,19.1z"/>
	</g>
</g>
<path id="Layer_3" class="st7" d="M27.3,33c0.2,1.5,1,2.8,2.8,3.3l-0.6,0.6c-1.9,1.2-3.6,2.4-5.5,3.6c-0.1,0.1-0.4,0.1-0.6,0
	c-1.9-1.2-3.7-2.4-5.6-3.6l-0.4-0.4c1.7-0.7,2.4-1.8,2.8-3.3c-0.9-0.1-1.5-0.4-1.9-1.2c-1.8,1-3.4,0.1-3.7-1.4
	c-0.9,0.1-1.7,0-2.2-0.7c-0.6-0.7-0.7-1.3-0.3-2.2c-0.8-0.1-1.4-0.4-1.8-1.1c-0.3-0.7-0.3-1.3,0.1-2c-1.5-0.7-2-2-1-3.3
	C8,20,8,19.1,9.2,17.8c-0.7-0.6-1-1.1-0.9-1.9s0.7-1.3,1.4-1.7c-0.6-0.6-0.8-1.2-0.6-2s0.8-1.2,1.7-1.4c-0.3-0.7-0.3-1.3,0-2
	c0.4-0.7,1.1-1,1.9-1c0-0.1,0-0.2-0.1-0.3c-0.2-1.3,0.9-2.3,2.3-2.3c0.1,0,0.4-0.1,0.4-0.2c0.7-1.2,1.5-1.7,3.1-1.2
	c0.4-0.7,0.9-1,1.5-1.2c0.7-0.1,1.3,0,1.9,0.4c0.4-0.4,1.1-0.8,1.8-0.8c0.8,0,1.3,0.3,1.8,0.8c1.5-0.7,2.4-0.6,3.4,0.7
	c0.7-0.2,1.3-0.3,2,0S31.9,4.5,32,5c2-0.2,3,1.1,2.6,2.6c2,0.3,2.5,1.8,1.9,3.1c1.7,0.4,2.3,2,1.1,3.4c1.8,0.8,1.9,2.5,0.6,3.6
	c0.6,0.4,0.9,1,0.9,1.8c-0.1,0.7-0.4,1.2-1.1,1.7c0.9,1.7,0.7,2.4-1,3.3c0.3,0.7,0.4,1.3,0.1,1.9c-0.3,0.7-1,1-1.8,1.1
	c0.3,2-0.4,3-2.6,2.9c-0.1,0.8-0.6,1.4-1.3,1.8c-0.8,0.3-1.5,0.2-2.3-0.3C28.8,32.5,28.2,32.9,27.3,33z"/>
</svg>
