<svg id="Layer_1" x="0" y="0" version="1.1" viewBox="0 0 47 57.8" xml:space="preserve">
  <style>
    .st0{display:none}.st1{display:inline;fill:#f6f6f6}.st2{fill:none;stroke:#f6f6f6;stroke-width:.7856;stroke-miterlimit:10}.st4{fill:#f6f6f6}
  </style>
  <g id="Layer_1_1_">
    <g class="st0">
      <path d="M24.4 41.7l1.2-4.5h-5l1.3 4.5h2.5zM21.7 43l-.4 12.9h3.6L24.6 43z" class="st1"/>
    </g>
    <path d="M8.7 54.9h29.9v-14c-.9-.8-2-1.5-3.2-2.3-2.3-1.4-4.5-2.3-6.3-2.8-.4.4-2.5 2.1-5.6 1.9-2.8-.2-4.5-1.8-5-2.2-1-.2-9.8 4.2-9.7 5.1 0 4.8-.1 9.5-.1 14.3z" class="st2"/>
    <path fill="none" stroke="#f6f6f6" stroke-linecap="round" stroke-linejoin="round" stroke-miterlimit="10" stroke-width=".785" d="M18.6 36.2s2.4 18.6 2.6 18.6 4.6-.1 4.6-.1l4-18.7c-.6.4-2.9 2.2-6.1 2.1-2.8-.1-4.5-1.4-5.1-1.9z"/>
    <path d="M32.4 46.2h-.3c-.6 0-1-.4-1-1s.4-1 1-1h.3c.6 0 1 .4 1 1 .1.5-.3 1-1 1z" class="st4"/>
    <path d="M32.3 44.4c-.3-5.2-2.9-8.3-2.9-8.3M18.2 36.1s-1.4.4-3.2 5.2" class="st2"/>
    <path d="M13.2 50.4s-.2 0-.3-.2c-.1-.1-.1-.3-.1-.3 0-2.3.1-4.6.1-6.9.1-.2.3-.6.7-.9.2-.3.6-.6.9-.7.8-.3 1.4-.1 1.7 0 .9.3 1.2 1.1 1.3 1.3.3 2.1.7 4.1.9 6.2-.1.2-.2.6-.2.8" class="st2"/>
    <circle cx="18" cy="50.4" r="1" class="st4"/>
    <circle cx="13.9" cy="50.9" r="1" class="st4"/>
    <path fill="none" stroke="#f6f6f6" stroke-linecap="round" stroke-linejoin="round" stroke-miterlimit="10" stroke-width="1.081" d="M18.4 13.7c2.2 1.7 3.6 1.7 4.5 1.3 1.3-.4 1.8-1.9 3.5-2.2.8-.1 1.4 0 2 .2.3.2.7.6 1 .9 1.7 1.8 1.9 4.1 2 5.1.4.1 1 .2 1.4.4.1.2.3.6.3 1.2 0 .2 0 .7-.3 1.2-.6.3-1 .6-1.5.9l-5.7 8.6c-.4.2-1.2.7-2.2.8-1.4.1-2.4-.4-2.9-.7-2-2.9-4-5.6-5.9-8.5l-1.1-.3c-.1-.1-.6-.8-.7-1.5 0-.9.3-1.5.6-1.7h.9c.6-1 .7-1.8.7-2.3 0-1.1-.4-1.7 0-2.3.3-.2.7-.6 1.1-.8.9-.3 1.8-.3 2.3-.3z"/>
    <g id="Layer_2_1_" class="st0">
      <path fill="#f6f6f6" stroke="#f6f6f6" stroke-linecap="round" stroke-linejoin="round" stroke-miterlimit="10" stroke-width=".129" d="M15.6 19.1c-.3 1.3-1 1.8-1.2 2.6-.2.7-.1 1.8 1.2 3.4v3.6c-.1.1-.6 1-1.7 1.3-1.1.3-2-.2-2.1-.3-.2-.1-1.2-1-1.2-2.2 0-.3 0-1 .6-1.3.2-.2.6-.2.7-.4.1-.2 0-.7-.2-1-.1-.1-1-.8-1.1-1.9-.1-1.1.6-2.1 1.7-2.6-.1-.2.1-.6-.2-.8-.2-.1-.9-.3-1.3-1.2-.4-.9-.2-1.7-.1-1.9.3-.9 1.2-1.9 1.9-1.7.1 0 .1.1.2.1.6 0 .9-1.2 1-1.5.6-1.7 2-3 3.2-4.1 2.4-2.3 6.4-2.1 7.2-2.1 6.4.3 10.2 6.9 10.5 7.4.2.4 4.3 2.8.4 5.3 0 0-.1.7 0 .8 1 .3 1.5 1.2 1.5 2.2 0 .9-.6 1.8-1.4 2.2l-.1.8c.9.7 1.2 1.9.9 2.9-.3.9-1.1 1.5-2 1.7-1.1.1-2.2-.4-2.8-1.5v-3.5c.2-.2 1.3-1.1 1.4-2.6.2-2-1.2-3.2-1.4-3.4h0v-2c-.1-.1-.2-.3-.3-.4-.3-.3-.6-.6-.8-.7-.5-.3-.8-.3-1.1-.3-.6.1-.9.3-1 .3-.8.4-2.1.6-3.6.7-2.4.1-5.1-.1-6.1-.7-.1 0-.3-.2-.7-.3-.3-.1-.8-.2-1.3 0-.7.3-.9 1.2-.9 1.2.3.5.3 1.2.2 1.9z"/>
    </g>
  </g>
  <path id="Layer_3" fill="none" stroke="#f6f6f6" stroke-linecap="round" stroke-linejoin="round" stroke-miterlimit="10" stroke-width="1.219" d="M27.3 33c.2 1.5 1 2.8 2.8 3.3l-.6.6c-1.9 1.2-3.6 2.4-5.5 3.6-.1.1-.4.1-.6 0-1.9-1.2-3.7-2.4-5.6-3.6l-.4-.4c1.7-.7 2.4-1.8 2.8-3.3-.9-.1-1.5-.4-1.9-1.2-1.8 1-3.4.1-3.7-1.4-.9.1-1.7 0-2.2-.7-.6-.7-.7-1.3-.3-2.2-.8-.1-1.4-.4-1.8-1.1-.3-.7-.3-1.3.1-2-1.5-.7-2-2-1-3.3C8 20 8 19.1 9.2 17.8c-.7-.6-1-1.1-.9-1.9s.7-1.3 1.4-1.7c-.6-.6-.8-1.2-.6-2 .2-.8.8-1.2 1.7-1.4-.3-.7-.3-1.3 0-2 .4-.7 1.1-1 1.9-1 0-.1 0-.2-.1-.3-.2-1.3.9-2.3 2.3-2.3.1 0 .4-.1.4-.2.7-1.2 1.5-1.7 3.1-1.2.4-.7.9-1 1.5-1.2.7-.1 1.3 0 1.9.4.4-.4 1.1-.8 1.8-.8.8 0 1.3.3 1.8.8 1.5-.7 2.4-.6 3.4.7.7-.2 1.3-.3 2 0s1.1.8 1.2 1.3c2-.2 3 1.1 2.6 2.6 2 .3 2.5 1.8 1.9 3.1 1.7.4 2.3 2 1.1 3.4 1.8.8 1.9 2.5.6 3.6.6.4.9 1 .9 1.8-.1.7-.4 1.2-1.1 1.7.9 1.7.7 2.4-1 3.3.3.7.4 1.3.1 1.9-.3.7-1 1-1.8 1.1.3 2-.4 3-2.6 2.9-.1.8-.6 1.4-1.3 1.8-.8.3-1.5.2-2.3-.3-.3.6-.9 1-1.8 1.1z"/>
</svg>
